<svg width="24" height="24" viewBox="0 0 24 24" fill="none" xmlns="http://www.w3.org/2000/svg">
<path fill-rule="evenodd" clip-rule="evenodd" d="M9.94435 3.25H14.0564C15.8944 3.25 17.3504 3.25 18.4894 3.403C19.6614 3.561 20.6103 3.893 21.3594 4.641C22.1073 5.39 22.4394 6.339 22.5974 7.511C22.6874 8.184 22.7244 8.967 22.7394 9.874C22.7524 9.95001 22.7538 10.0276 22.7434 10.104C22.7504 10.67 22.7504 11.282 22.7504 11.944V12.056C22.7504 13.894 22.7504 15.35 22.5974 16.489C22.4394 17.661 22.1073 18.61 21.3594 19.359C20.6103 20.107 19.6614 20.439 18.4894 20.597C17.3494 20.75 15.8944 20.75 14.0564 20.75H9.94435C8.10635 20.75 6.65035 20.75 5.51135 20.597C4.33935 20.439 3.39035 20.107 2.64135 19.359C1.89335 18.61 1.56135 17.661 1.40335 16.489C1.25035 15.349 1.25035 13.894 1.25035 12.056V11.944C1.25035 11.282 1.25035 10.67 1.25735 10.104C1.24663 10.0276 1.24764 9.95007 1.26035 9.874C1.27635 8.967 1.31335 8.184 1.40335 7.511C1.56135 6.339 1.89335 5.39 2.64135 4.641C3.39035 3.893 4.33935 3.561 5.51135 3.403C6.65135 3.25 8.10635 3.25 9.94435 3.25ZM2.75235 10.75C2.75035 11.138 2.75035 11.554 2.75035 12C2.75035 13.907 2.75235 15.261 2.89035 16.29C3.02535 17.295 3.27935 17.875 3.70235 18.298C4.12535 18.721 4.70535 18.975 5.71135 19.11C6.73935 19.248 8.09335 19.25 10.0004 19.25H14.0004C15.9074 19.25 17.2624 19.248 18.2904 19.11C19.2954 18.975 19.8754 18.721 20.2984 18.298C20.7214 17.875 20.9754 17.295 21.1104 16.289C21.2484 15.261 21.2504 13.907 21.2504 12C21.2504 11.554 21.2504 11.138 21.2484 10.75H2.75235ZM21.2244 9.25H2.77635C2.79635 8.663 2.83035 8.156 2.89035 7.71C3.02535 6.705 3.27935 6.125 3.70235 5.702C4.12535 5.279 4.70535 5.025 5.71135 4.89C6.73935 4.752 8.09335 4.75 10.0004 4.75H14.0004C15.9074 4.75 17.2624 4.752 18.2904 4.89C19.2954 5.025 19.8754 5.279 20.2984 5.702C20.7214 6.125 20.9754 6.705 21.1104 7.711C21.1704 8.156 21.2044 8.663 21.2244 9.25ZM5.25035 16C5.25035 15.8011 5.32937 15.6103 5.47002 15.4697C5.61067 15.329 5.80144 15.25 6.00035 15.25H10.0004C10.1993 15.25 10.39 15.329 10.5307 15.4697C10.6713 15.6103 10.7504 15.8011 10.7504 16C10.7504 16.1989 10.6713 16.3897 10.5307 16.5303C10.39 16.671 10.1993 16.75 10.0004 16.75H6.00035C5.80144 16.75 5.61067 16.671 5.47002 16.5303C5.32937 16.3897 5.25035 16.1989 5.25035 16ZM11.7504 16C11.7504 15.8011 11.8294 15.6103 11.97 15.4697C12.1107 15.329 12.3014 15.25 12.5004 15.25H14.0004C14.1993 15.25 14.39 15.329 14.5307 15.4697C14.6713 15.6103 14.7504 15.8011 14.7504 16C14.7504 16.1989 14.6713 16.3897 14.5307 16.5303C14.39 16.671 14.1993 16.75 14.0004 16.75H12.5004C12.3014 16.75 12.1107 16.671 11.97 16.5303C11.8294 16.3897 11.7504 16.1989 11.7504 16Z" fill="#F88D12"/>
</svg>
