<svg width="40" height="60" viewBox="0 0 40 60" fill="none" xmlns="http://www.w3.org/2000/svg">
<rect opacity="0.2" y="10" width="40" height="40" rx="6" fill="#F88D12"/>
<path d="M29.743 30.331L20.743 20.331C20.364 19.909 19.636 19.909 19.257 20.331L10.257 30.331C10.1274 30.4746 10.0424 30.6527 10.0122 30.8438C9.98205 31.0348 10.008 31.2305 10.087 31.407C10.247 31.768 10.605 32 11 32H13V39C13 39.2652 13.1053 39.5196 13.2929 39.7071C13.4804 39.8946 13.7348 40 14 40H17C17.2652 40 17.5196 39.8946 17.7071 39.7071C17.8946 39.5196 18 39.2652 18 39V35H22V39C22 39.2652 22.1053 39.5196 22.2929 39.7071C22.4804 39.8946 22.7348 40 23 40H26C26.2652 40 26.5196 39.8946 26.7071 39.7071C26.8946 39.5196 27 39.2652 27 39V32H29C29.1937 32.0008 29.3834 31.9453 29.546 31.8401C29.7087 31.735 29.8372 31.5848 29.916 31.4079C29.9947 31.231 30.0203 31.0349 29.9896 30.8437C29.9589 30.6525 29.8732 30.4744 29.743 30.331Z" fill="#F88D12"/>
</svg>
