<svg width="24" height="24" viewBox="0 0 24 24" fill="none" xmlns="http://www.w3.org/2000/svg">
<path d="M6 3C5.20435 3 4.44129 3.31607 3.87868 3.87868C3.31607 4.44129 3 5.20435 3 6V14.9955C3 15.7911 3.31607 16.5542 3.87868 17.1168C4.44129 17.6794 5.20435 17.9955 6 17.9955H9.0075V19.512H6.759C6.56009 19.512 6.36932 19.591 6.22867 19.7317C6.08802 19.8723 6.009 20.0631 6.009 20.262C6.009 20.4609 6.08802 20.6517 6.22867 20.7923C6.36932 20.933 6.56009 21.012 6.759 21.012H12V19.512H10.5075V17.997H12.0015V16.497H6C5.60218 16.497 5.22064 16.339 4.93934 16.0577C4.65804 15.7764 4.5 15.3948 4.5 14.997V6C4.5 5.60218 4.65804 5.22064 4.93934 4.93934C5.22064 4.65804 5.60218 4.5 6 4.5H18C18.3978 4.5 18.7794 4.65804 19.0607 4.93934C19.342 5.22064 19.5 5.60218 19.5 6V14.9595L20.73 16.2405C20.904 15.861 21 15.4395 21 14.9955V6C21 5.20435 20.6839 4.44129 20.1213 3.87868C19.5587 3.31607 18.7956 3 18 3H6ZM14.796 12.2295C14.6922 12.1219 14.5587 12.0477 14.4125 12.0165C14.2662 11.9853 14.114 11.9985 13.9754 12.0545C13.8367 12.1104 13.7179 12.2065 13.6343 12.3305C13.5507 12.4544 13.506 12.6005 13.506 12.75L13.5 21.753C13.4999 21.9117 13.5503 22.0664 13.6437 22.1947C13.7371 22.323 13.8689 22.4184 14.0199 22.4671C14.171 22.5158 14.3336 22.5153 14.4844 22.4657C14.6352 22.4161 14.7664 22.3199 14.859 22.191L16.914 19.329L20.514 20.1675C20.6715 20.204 20.8367 20.1887 20.9848 20.1237C21.1329 20.0587 21.256 19.9476 21.3358 19.8069C21.4156 19.6662 21.4477 19.5035 21.4275 19.343C21.4073 19.1826 21.3357 19.033 21.2235 18.9165L14.796 12.2295Z" fill="#F88D12"/>
</svg>
